<?xml version="1.0" encoding="iso-8859-1"?>
<!-- Uploaded to: SVG Repo, www.svgrepo.com, Generator: SVG Repo Mixer Tools -->
<svg fill="#000000" height="800px" width="800px" version="1.1" id="Layer_1" xmlns="http://www.w3.org/2000/svg" xmlns:xlink="http://www.w3.org/1999/xlink" 
	 viewBox="0 0 512.001 512.001" xml:space="preserve">
<g>
	<g>
		<path d="M317.799,81.527v-31.95V11.551c0-6.38-5.173-11.551-11.551-11.551s-11.551,5.171-11.551,11.551v26.475h-10.396V11.551
			C284.301,5.171,279.128,0,272.75,0s-11.551,5.171-11.551,11.551v26.475h-10.396V11.551C250.803,5.171,245.63,0,239.252,0
			c-6.378,0-11.551,5.171-11.551,11.551v26.475h-10.407V11.551C217.293,5.171,212.12,0,205.742,0
			c-6.379,0-11.551,5.171-11.551,11.551v38.026V81.53c-23.39,2.969-41.538,22.978-41.538,47.162v239.303
			c0,52.645,40.381,96.03,91.796,100.821v31.635c0,6.38,5.173,11.551,11.551,11.551c6.378,0,11.551-5.171,11.551-11.551v-31.635
			c51.415-4.792,91.796-48.176,91.796-100.821V128.69C359.348,104.503,341.193,84.491,317.799,81.527z M217.293,61.128h77.403
			v20.006h-77.403V61.128z M217.293,104.237h77.403v260.488c0,21.337-17.359,38.696-38.696,38.696
			c-21.344,0-38.708-17.359-38.708-38.696V104.237z M336.246,367.993c0,43.1-35.064,78.166-78.166,78.166h-4.158
			c-43.1,0-78.166-35.064-78.166-78.166V128.69c0-11.404,7.858-20.981,18.435-23.674v259.708c0,34.076,27.727,61.798,61.81,61.798
			c34.076,0,61.798-27.722,61.798-61.798v-259.71c10.583,2.688,18.447,12.268,18.447,23.676V367.993z"/>
	</g>
</g>
<g>
	<g>
		<path d="M256.001,290.566c-6.378,0-11.551,5.171-11.551,11.551v55.445c0,6.38,5.173,11.551,11.551,11.551
			c6.378,0,11.551-5.171,11.551-11.551v-55.445C267.552,295.738,262.379,290.566,256.001,290.566z"/>
	</g>
</g>
<g>
	<g>
		<path d="M256.001,252.09c-6.378,0-11.551,5.171-11.551,11.551v4.632c0,6.38,5.173,11.551,11.551,11.551
			c6.378,0,11.551-5.171,11.551-11.551v-4.632C267.552,257.261,262.379,252.09,256.001,252.09z"/>
	</g>
</g>
</svg>