<?xml version="1.0" encoding="iso-8859-1"?>
<!-- Uploaded to: SVG Repo, www.svgrepo.com, Generator: SVG Repo Mixer Tools -->
<svg fill="#000000" height="800px" width="800px" version="1.1" id="Layer_1" xmlns="http://www.w3.org/2000/svg" xmlns:xlink="http://www.w3.org/1999/xlink" 
	 viewBox="0 0 512 512" xml:space="preserve">
<g>
	<g>
		<path d="M341.333,405.333h-10.667V106.667h10.667c5.888,0,10.667-4.779,10.667-10.667c0-29.397-23.936-53.333-53.333-53.333
			C298.667,19.136,279.531,0,256,0s-42.667,19.136-42.667,42.667C183.936,42.667,160,66.603,160,96
			c0,5.888,4.779,10.667,10.667,10.667h10.667v298.667h-10.667c-5.888,0-10.667,4.779-10.667,10.667
			c0,29.397,23.936,53.333,53.333,53.333C213.333,492.864,232.469,512,256,512s42.667-19.136,42.667-42.667
			C328.064,469.333,352,445.397,352,416C352,410.112,347.221,405.333,341.333,405.333z M256,21.333
			c11.755,0,21.333,9.579,21.333,21.333h-42.667C234.667,30.912,244.245,21.333,256,21.333z M213.312,64h85.333
			c13.909,0,25.771,8.917,30.187,21.333H183.147C187.563,72.917,199.424,64,213.312,64z M205.504,297.557
			c8.384-0.704,16.683-1.771,24.832-3.392c1.131-0.213,2.219-0.555,3.349-0.789c7.381-1.579,14.635-3.584,21.781-5.888
			c1.771-0.576,3.563-1.109,5.312-1.728c7.765-2.731,15.36-5.867,22.72-9.472c1.408-0.683,2.752-1.451,4.139-2.176
			c6.549-3.371,12.885-7.04,19.008-11.072c0.853-0.555,1.792-0.96,2.624-1.536v37.333c-0.661,0.576-1.408,1.131-2.155,1.685
			c-6.763,5.248-13.781,10.133-21.205,14.4c-0.448,0.256-0.917,0.469-1.365,0.725c-7.381,4.16-15.083,7.787-23.019,10.987
			c-0.981,0.405-1.941,0.853-2.944,1.237c-7.893,3.029-16.064,5.461-24.363,7.467c-1.536,0.363-3.051,0.747-4.587,1.088
			c-8.213,1.771-16.576,3.072-25.045,3.819c-0.64,0.064-1.28,0.085-1.941,0.128v-42.432
			C203.605,297.877,204.544,297.643,205.504,297.557z M202.645,276.373v-42.368c38.613-2.773,75.52-15.36,106.667-36.416v37.248
			c-0.704,0.576-1.451,1.131-2.197,1.685c-6.763,5.248-13.781,10.133-21.205,14.4c-0.448,0.256-0.917,0.469-1.365,0.725
			c-7.381,4.16-15.083,7.787-23.019,10.987c-0.981,0.405-1.941,0.853-2.944,1.237c-7.893,3.029-16.064,5.461-24.363,7.467
			c-1.536,0.363-3.051,0.747-4.587,1.088c-8.213,1.771-16.576,3.072-25.045,3.819C203.947,276.309,203.307,276.331,202.645,276.373z
			 M202.667,361.92c0.96-0.064,1.899-0.299,2.859-0.384c8.384-0.704,16.683-1.771,24.832-3.392c1.131-0.213,2.219-0.555,3.349-0.789
			c7.381-1.579,14.635-3.584,21.781-5.888c1.771-0.576,3.563-1.109,5.312-1.728c7.765-2.731,15.36-5.867,22.72-9.472
			c1.408-0.683,2.752-1.451,4.139-2.176c6.549-3.371,12.885-7.04,19.008-11.072c0.853-0.555,1.792-0.96,2.624-1.536v37.547
			c-29.845,23.893-67.221,38.4-106.624,41.493V361.92z M309.333,389.333v16h-27.84C291.2,400.725,300.459,395.328,309.333,389.333z
			 M304.341,174.677c-4.395,3.285-8.939,6.379-13.632,9.259c-3.776,2.325-7.659,4.501-11.605,6.571
			c-4.245,2.219-8.576,4.288-12.992,6.208c-4.139,1.792-8.32,3.477-12.565,4.971c-5.12,1.813-10.347,3.392-15.637,4.779
			c-3.755,0.981-7.531,1.899-11.349,2.667c-6.251,1.259-12.587,2.219-18.965,2.88c-1.643,0.192-3.285,0.213-4.928,0.341v-42.176
			c38.613-2.752,75.541-15.424,106.667-36.437v37.099C307.691,172.139,306.027,173.419,304.341,174.677z M202.667,148.608v-41.941
			h106.667v0.427C279.445,131.008,242.112,145.515,202.667,148.608z M256,490.667c-11.755,0-21.333-9.579-21.333-21.333h42.667
			C277.333,481.088,267.755,490.667,256,490.667z M298.667,448h-85.333c-13.909,0-25.771-8.917-30.187-21.333h145.707
			C324.437,439.083,312.576,448,298.667,448z"/>
	</g>
</g>
</svg>