<?xml version="1.0" encoding="iso-8859-1"?>
<!-- Uploaded to: SVG Repo, www.svgrepo.com, Generator: SVG Repo Mixer Tools -->
<!DOCTYPE svg PUBLIC "-//W3C//DTD SVG 1.1//EN" "http://www.w3.org/Graphics/SVG/1.1/DTD/svg11.dtd">
<svg fill="#000000" height="800px" width="800px" version="1.1" id="Capa_1" xmlns="http://www.w3.org/2000/svg" xmlns:xlink="http://www.w3.org/1999/xlink" 
	 viewBox="0 0 67.856 67.856" xml:space="preserve">
<path d="M55.818,45.724C49.912,34.516,41.62,24.809,31.606,17.23c-0.068-3.9-2.92-7.148-6.645-7.834C24.586,4.154,20.212,0,14.876,0
	c-0.828,0-1.5,0.671-1.5,1.5s0.672,1.5,1.5,1.5c3.686,0,6.726,2.815,7.086,6.408c-0.601,0.116-1.177,0.3-1.724,0.542
	c-0.148-0.079-0.291-0.164-0.439-0.242c-3.233-1.706-6.974-0.565-8.144,2.253c-1.175,2.824,0.225,6.122,2.966,7.574
	c0.257,0.135,0.507,0.282,0.762,0.42v39.787c0,4.463,3.652,8.115,8.115,8.115s8.115-3.652,8.115-8.115V31.816
	c5.748,5.525,10.62,11.954,14.378,19.086c1.451,2.74,4.75,4.14,7.574,2.966C56.382,52.698,57.524,48.957,55.818,45.724z
	 M23.498,20.393c-1.178,0-2.132-0.955-2.132-2.132s0.955-2.132,2.132-2.132s2.132,0.955,2.132,2.132S24.676,20.393,23.498,20.393z
	 M51.089,50.149c-1.178,0-2.132-0.955-2.132-2.132s0.955-2.132,2.132-2.132c1.178,0,2.132,0.955,2.132,2.132
	S52.266,50.149,51.089,50.149z"/>
</svg>